<?xml version="1.0" encoding="UTF-8"?>
<svg id="Layer_1" xmlns="http://www.w3.org/2000/svg" version="1.1" viewBox="0 0 64 64">
  <!-- Generator: Adobe Illustrator 29.1.0, SVG Export Plug-In . SVG Version: 2.1.0 Build 142)  -->
  <defs>
    <style>
      .st0 {
        fill: #e6e7e8;
      }
    </style>
  </defs>
  <path class="st0" d="M27.7,28c-1.7-5.5-7.1-6.4-13.6-6.4S0,22.2,0,32s6.3,10.5,14.1,10.5,11.7-.8,13.5-6h-5.3c-1.7,2.5-3.3,1.6-7.5,1.7-5.9,0-9.9,1.4-9.9-6s4-6,9.9-6,6-.8,7.6,2h5.3v-.2Z"/>
  <path class="st0" d="M41.4,28.1c1.5-3.2,4.7-2.1,9.2-2.1s8.6-.9,8.6,6-2.7,6-8.6,6-7.4,1-9-1.8h-5.2c1.7,5.8,7.1,6.2,13.5,6.2s14.1-1.2,14.1-10.5-6.3-10.5-14.1-10.5-12,.4-13.6,6.4h5.1v.2h0Z"/>
  <path class="st0" d="M31.9,34.8c-12.6,0-15.1.8-15-2.6,0-3.4,2.2-2.6,15-2.6s15.1-1,15,2.6c0,2.2-1,2.6-5.6,2.6h-9.5,0Z"/>
</svg>